<?xml version="1.0" encoding="UTF-8"?>
<!DOCTYPE svg PUBLIC "-//W3C//DTD SVG 1.1//EN" "http://www.w3.org/Graphics/SVG/1.1/DTD/svg11.dtd">
<svg xmlns="http://www.w3.org/2000/svg" version="1.1" width="500px" height="500px" style="shape-rendering:geometricPrecision; text-rendering:geometricPrecision; image-rendering:optimizeQuality; fill-rule:evenodd; clip-rule:evenodd" xmlns:xlink="http://www.w3.org/1999/xlink">
<g><path style="opacity:1" fill="#fcfbfa" d="M 383.5,153.5 C 392.98,168.463 400.313,184.463 405.5,201.5C 403.813,200.133 402.147,199.133 400.5,198.5C 400.306,200.263 400.306,202.097 400.5,204C 399.584,204.374 398.75,204.874 398,205.5C 396.257,200.958 394.424,196.458 392.5,192C 393.148,190.56 393.481,189.06 393.5,187.5C 391.418,187.528 389.584,186.861 388,185.5C 387.499,182.607 386.333,180.107 384.5,178C 374.391,176.779 364.557,177.613 355,180.5C 348.459,178.585 341.959,177.585 335.5,177.5C 334.833,177.667 334.167,177.833 333.5,178C 345.663,184.457 357.996,184.957 370.5,179.5C 374.693,181.066 379.026,181.732 383.5,181.5C 383.5,182.833 383.5,184.167 383.5,185.5C 382.178,185.33 381.011,185.663 380,186.5C 376.708,184.919 373.208,183.919 369.5,183.5C 368.353,183.818 367.519,184.484 367,185.5C 366.667,185.167 366.333,184.833 366,184.5C 365.409,185.483 365.743,186.15 367,186.5C 370.15,186.947 372.983,187.947 375.5,189.5C 303.457,175.325 231.457,160.825 159.5,146C 150.946,144.467 143.613,146.634 137.5,152.5C 132.993,156.188 129.827,160.855 128,166.5C 125.307,183.353 122.807,200.187 120.5,217C 136.521,223.062 152.855,228.229 169.5,232.5C 180.356,236.061 191.356,239.561 202.5,243C 214.128,245.562 225.128,243.896 235.5,238C 249.463,226.372 263.13,214.372 276.5,202C 287.744,193.365 300.411,190.031 314.5,192C 328.994,195.044 343.327,198.211 357.5,201.5C 355.677,202.227 353.843,202.561 352,202.5C 346.597,200.601 341.097,199.934 335.5,200.5C 334.221,202.146 332.555,203.313 330.5,204C 334.126,204.278 336.126,206.112 336.5,209.5C 309.584,193.801 286.417,198.134 267,222.5C 253.707,247.326 257.207,269.493 277.5,289C 281.23,291.193 284.897,293.36 288.5,295.5C 286.085,295.373 283.751,295.207 281.5,295C 281.577,297.111 281.911,299.111 282.5,301C 281.5,301.5 280.5,302 279.5,302.5C 277.979,302.12 276.313,301.954 274.5,302C 275.973,301.29 276.64,300.124 276.5,298.5C 277.423,299.303 278.423,299.47 279.5,299C 256.437,282.484 247.937,260.317 254,232.5C 237.475,251.229 217.309,256.729 193.5,249C 172.512,242.392 151.512,235.892 130.5,229.5C 130.334,234.511 130.501,239.511 131,244.5C 131.616,247.787 133.116,250.621 135.5,253C 161.449,262.371 187.449,271.205 213.5,279.5C 211.023,279.051 209.023,279.717 207.5,281.5C 209.901,282.358 211.901,283.691 213.5,285.5C 202.966,282.242 192.466,278.909 182,275.5C 181.333,279.167 181.333,282.833 182,286.5C 183.36,289.023 185.193,291.023 187.5,292.5C 187.5,296.167 187.5,299.833 187.5,303.5C 171.5,303.5 155.5,303.5 139.5,303.5C 139.666,298.156 139.499,292.823 139,287.5C 138.5,287 138,286.5 137.5,286C 132.833,285.333 128.167,285.333 123.5,286C 123,286.5 122.5,287 122,287.5C 121.333,303.5 121.333,319.5 122,335.5C 122.5,336.667 123.333,337.5 124.5,338C 127.817,338.498 131.15,338.665 134.5,338.5C 131.268,338.905 128.434,340.238 126,342.5C 122.908,341.197 120.241,339.197 118,336.5C 116.133,338.756 116.133,341.09 118,343.5C 118.667,342.833 119.333,342.167 120,341.5C 121.444,343.155 123.278,343.822 125.5,343.5C 125.401,346.586 124.068,348.919 121.5,350.5C 95.4635,316.393 83.9635,277.726 87,234.5C 94.8745,171.199 127.374,125.699 184.5,98C 246.858,74.1722 304.191,82.8388 356.5,124C 366.472,133.13 375.472,142.964 383.5,153.5 Z"/></g>
<g><path style="opacity:1" fill="#042948" d="M 424.5,222.5 C 423.415,233.711 423.748,245.045 425.5,256.5C 424.446,269.045 422.279,281.379 419,293.5C 417.867,295.211 416.367,295.711 414.5,295C 415.167,294.667 415.833,294.333 416.5,294C 412.52,293.561 411.853,292.061 414.5,289.5C 411.67,289.006 410.337,287.339 410.5,284.5C 411.929,281.04 412.762,277.373 413,273.5C 413.906,254.466 413.573,235.466 412,216.5C 409.907,211.372 408.574,206.038 408,200.5C 403.459,185.421 396.792,171.421 388,158.5C 387.667,156.833 387.333,155.167 387,153.5C 386.014,154.171 384.847,154.171 383.5,153.5C 375.472,142.964 366.472,133.13 356.5,124C 304.191,82.8388 246.858,74.1722 184.5,98C 127.374,125.699 94.8745,171.199 87,234.5C 83.9635,277.726 95.4635,316.393 121.5,350.5C 154.29,391.727 197.29,413.061 250.5,414.5C 285.338,413.553 317.004,403.22 345.5,383.5C 348.665,382.205 351.999,381.205 355.5,380.5C 357.029,380.529 358.196,381.196 359,382.5C 359.333,382.167 359.667,381.833 360,381.5C 360.465,382.931 361.299,384.097 362.5,385C 360.751,386.292 358.918,387.458 357,388.5C 356.517,389.448 356.351,390.448 356.5,391.5C 355.325,391.281 354.325,391.614 353.5,392.5C 352.45,393.429 352.45,394.095 353.5,394.5C 307.591,426.71 257.258,435.877 202.5,422C 129.589,398.03 86.5889,348.197 73.5,272.5C 74.9468,271.866 75.6134,270.699 75.5,269C 74.3779,255.522 74.2113,242.022 75,228.5C 76.2099,225.098 77.0433,221.598 77.5,218C 77.4944,215.967 77.1611,214.134 76.5,212.5C 90.4874,150.345 126.821,106.845 185.5,82C 250.688,59.9285 310.355,69.9285 364.5,112C 398.397,141.119 418.397,177.953 424.5,222.5 Z"/></g>
<g><path style="opacity:1" fill="#012a4b" d="M 375.5,189.5 C 383.512,191.013 387.846,195.847 388.5,204C 386.617,213.318 384.117,222.485 381,231.5C 378.413,240.375 372.58,244.042 363.5,242.5C 366.772,229.981 368.938,217.315 370,204.5C 366.021,202.804 361.855,201.804 357.5,201.5C 343.327,198.211 328.994,195.044 314.5,192C 300.411,190.031 287.744,193.365 276.5,202C 263.13,214.372 249.463,226.372 235.5,238C 225.128,243.896 214.128,245.562 202.5,243C 191.356,239.561 180.356,236.061 169.5,232.5C 168.426,231.115 167.093,229.949 165.5,229C 161.122,228.321 156.789,227.488 152.5,226.5C 152.5,225.5 152.5,224.5 152.5,223.5C 149.15,223.665 145.817,223.498 142.5,223C 136.186,220.623 129.852,218.456 123.5,216.5C 123.014,213.245 124.014,210.578 126.5,208.5C 125.39,203.889 125.223,199.222 126,194.5C 126.273,192.671 127.107,191.171 128.5,190C 127.919,189.107 127.585,188.107 127.5,187C 128.18,182.523 128.68,178.023 129,173.5C 132.476,170.814 132.976,171.147 130.5,174.5C 132.045,175.452 133.712,175.785 135.5,175.5C 134.562,172.512 133.229,169.678 131.5,167C 131.851,164.411 132.518,161.911 133.5,159.5C 134.795,158.902 136.128,158.402 137.5,158C 136.862,156.293 136.862,154.46 137.5,152.5C 143.613,146.634 150.946,144.467 159.5,146C 231.457,160.825 303.457,175.325 375.5,189.5 Z"/></g>
<g><path style="opacity:1" fill="#fdfcfa" d="M 405.5,201.5 C 412.089,222.573 414.255,244.24 412,266.5C 410.465,281.347 406.965,295.68 401.5,309.5C 401.5,309.833 401.5,310.167 401.5,310.5C 389.339,339.821 370.672,364.154 345.5,383.5C 317.004,403.22 285.338,413.553 250.5,414.5C 197.29,413.061 154.29,391.727 121.5,350.5C 124.068,348.919 125.401,346.586 125.5,343.5C 123.278,343.822 121.444,343.155 120,341.5C 119.333,342.167 118.667,342.833 118,343.5C 116.133,341.09 116.133,338.756 118,336.5C 120.241,339.197 122.908,341.197 126,342.5C 128.434,340.238 131.268,338.905 134.5,338.5C 136.229,337.883 137.729,336.883 139,335.5C 139.499,330.845 139.666,326.179 139.5,321.5C 157.503,321.667 175.503,321.5 193.5,321C 194.737,320.768 195.737,320.268 196.5,319.5C 200.407,318.593 203.074,316.26 204.5,312.5C 205.222,312.082 205.722,311.416 206,310.5C 206.17,304.472 206.67,298.472 207.5,292.5C 210.888,291.652 213.221,289.652 214.5,286.5C 214.376,285.893 214.043,285.56 213.5,285.5C 211.901,283.691 209.901,282.358 207.5,281.5C 209.023,279.717 211.023,279.051 213.5,279.5C 234.444,286.037 255.444,292.37 276.5,298.5C 276.64,300.124 275.973,301.29 274.5,302C 276.313,301.954 277.979,302.12 279.5,302.5C 280.5,302 281.5,301.5 282.5,301C 281.911,299.111 281.577,297.111 281.5,295C 283.751,295.207 286.085,295.373 288.5,295.5C 314.234,303.755 334.734,296.755 350,274.5C 358.873,256.982 358.54,239.649 349,222.5C 345.33,217.664 341.164,213.331 336.5,209.5C 336.126,206.112 334.126,204.278 330.5,204C 332.555,203.313 334.221,202.146 335.5,200.5C 341.097,199.934 346.597,200.601 352,202.5C 353.843,202.561 355.677,202.227 357.5,201.5C 361.855,201.804 366.021,202.804 370,204.5C 368.938,217.315 366.772,229.981 363.5,242.5C 372.58,244.042 378.413,240.375 381,231.5C 384.117,222.485 386.617,213.318 388.5,204C 387.846,195.847 383.512,191.013 375.5,189.5C 372.983,187.947 370.15,186.947 367,186.5C 365.743,186.15 365.409,185.483 366,184.5C 366.333,184.833 366.667,185.167 367,185.5C 367.519,184.484 368.353,183.818 369.5,183.5C 373.208,183.919 376.708,184.919 380,186.5C 381.011,185.663 382.178,185.33 383.5,185.5C 383.5,184.167 383.5,182.833 383.5,181.5C 379.026,181.732 374.693,181.066 370.5,179.5C 357.996,184.957 345.663,184.457 333.5,178C 334.167,177.833 334.833,177.667 335.5,177.5C 341.959,177.585 348.459,178.585 355,180.5C 364.557,177.613 374.391,176.779 384.5,178C 386.333,180.107 387.499,182.607 388,185.5C 389.584,186.861 391.418,187.528 393.5,187.5C 393.481,189.06 393.148,190.56 392.5,192C 394.424,196.458 396.257,200.958 398,205.5C 398.75,204.874 399.584,204.374 400.5,204C 400.306,202.097 400.306,200.263 400.5,198.5C 402.147,199.133 403.813,200.133 405.5,201.5 Z"/></g>
<g><path style="opacity:1" fill="#0e2a42" d="M 137.5,152.5 C 136.862,154.46 136.862,156.293 137.5,158C 136.128,158.402 134.795,158.902 133.5,159.5C 132.518,161.911 131.851,164.411 131.5,167C 133.229,169.678 134.562,172.512 135.5,175.5C 133.712,175.785 132.045,175.452 130.5,174.5C 132.976,171.147 132.476,170.814 129,173.5C 128.68,178.023 128.18,182.523 127.5,187C 127.585,188.107 127.919,189.107 128.5,190C 127.107,191.171 126.273,192.671 126,194.5C 125.223,199.222 125.39,203.889 126.5,208.5C 124.014,210.578 123.014,213.245 123.5,216.5C 129.852,218.456 136.186,220.623 142.5,223C 145.817,223.498 149.15,223.665 152.5,223.5C 152.5,224.5 152.5,225.5 152.5,226.5C 156.789,227.488 161.122,228.321 165.5,229C 167.093,229.949 168.426,231.115 169.5,232.5C 152.855,228.229 136.521,223.062 120.5,217C 122.807,200.187 125.307,183.353 128,166.5C 129.827,160.855 132.993,156.188 137.5,152.5 Z"/></g>
<g><path style="opacity:1" fill="#042a4a" d="M 276.5,298.5 C 255.444,292.37 234.444,286.037 213.5,279.5C 187.449,271.205 161.449,262.371 135.5,253C 133.116,250.621 131.616,247.787 131,244.5C 130.501,239.511 130.334,234.511 130.5,229.5C 151.512,235.892 172.512,242.392 193.5,249C 217.309,256.729 237.475,251.229 254,232.5C 247.937,260.317 256.437,282.484 279.5,299C 278.423,299.47 277.423,299.303 276.5,298.5 Z"/></g>
<g><path style="opacity:1" fill="#091f33" d="M 76.5,212.5 C 77.1611,214.134 77.4944,215.967 77.5,218C 77.0433,221.598 76.2099,225.098 75,228.5C 74.2113,242.022 74.3779,255.522 75.5,269C 75.6134,270.699 74.9468,271.866 73.5,272.5C 72.4798,259.516 72.3131,246.516 73,233.5C 73.4851,226.248 74.6518,219.248 76.5,212.5 Z"/></g>
<g><path style="opacity:1" fill="#032a4b" d="M 336.5,209.5 C 341.164,213.331 345.33,217.664 349,222.5C 358.54,239.649 358.873,256.982 350,274.5C 334.734,296.755 314.234,303.755 288.5,295.5C 284.897,293.36 281.23,291.193 277.5,289C 257.207,269.493 253.707,247.326 267,222.5C 286.417,198.134 309.584,193.801 336.5,209.5 Z"/></g>
<g><path style="opacity:1" fill="#07a2e6" d="M 300.5,216.5 C 320.088,214.61 332.922,222.943 339,241.5C 342.158,262.04 333.991,275.54 314.5,282C 294.892,284.38 282.058,276.213 276,257.5C 273.421,237.315 281.587,223.648 300.5,216.5 Z"/></g>
<g><path style="opacity:1" fill="#012a4d" d="M 303.5,235.5 C 314.951,234.786 320.784,240.12 321,251.5C 317.368,262.733 310.202,265.9 299.5,261C 290.689,250.889 292.023,242.389 303.5,235.5 Z"/></g>
<g><path style="opacity:1" fill="#012a4c" d="M 204.5,312.5 C 203.074,316.26 200.407,318.593 196.5,319.5C 186.76,319.692 177.093,319.025 167.5,317.5C 157.873,317.311 148.206,317.644 138.5,318.5C 137.686,323.119 137.353,327.786 137.5,332.5C 134.45,331.923 132.45,333.09 131.5,336C 130.552,336.483 129.552,336.649 128.5,336.5C 128.878,334.354 129.212,332.187 129.5,330C 128.553,324.056 127.553,324.056 126.5,330C 127.76,331.814 127.76,333.647 126.5,335.5C 125.833,335.167 125.167,334.833 124.5,334.5C 123.167,321.5 123.167,308.5 124.5,295.5C 125.425,294.359 126.259,294.359 127,295.5C 127.186,297.9 127.686,300.234 128.5,302.5C 129.494,297.544 129.827,292.544 129.5,287.5C 131.861,287.674 134.194,288.007 136.5,288.5C 136.788,294.229 136.454,299.896 135.5,305.5C 135.877,307.824 136.877,308.491 138.5,307.5C 139.548,308.383 140.715,309.05 142,309.5C 154.837,306.694 167.837,306.028 181,307.5C 185.649,304.265 189.482,304.931 192.5,309.5C 193.631,307.926 193.798,306.259 193,304.5C 192,303.167 191,303.167 190,304.5C 189.974,299.944 189.807,295.444 189.5,291C 188.258,289.349 187.424,287.515 187,285.5C 185.989,286.337 184.822,286.67 183.5,286.5C 183.192,284.076 183.526,281.743 184.5,279.5C 192.951,282.225 201.618,284.225 210.5,285.5C 210.5,286.833 210.5,288.167 210.5,289.5C 207.236,287.569 205.403,288.569 205,292.5C 204.5,299.158 204.334,305.825 204.5,312.5 Z"/></g>
<g><path style="opacity:1" fill="#0c2842" d="M 213.5,285.5 C 214.043,285.56 214.376,285.893 214.5,286.5C 213.221,289.652 210.888,291.652 207.5,292.5C 206.67,298.472 206.17,304.472 206,310.5C 205.722,311.416 205.222,312.082 204.5,312.5C 204.334,305.825 204.5,299.158 205,292.5C 205.403,288.569 207.236,287.569 210.5,289.5C 210.5,288.167 210.5,286.833 210.5,285.5C 201.618,284.225 192.951,282.225 184.5,279.5C 183.526,281.743 183.192,284.076 183.5,286.5C 184.822,286.67 185.989,286.337 187,285.5C 187.424,287.515 188.258,289.349 189.5,291C 189.807,295.444 189.974,299.944 190,304.5C 191,303.167 192,303.167 193,304.5C 193.798,306.259 193.631,307.926 192.5,309.5C 189.482,304.931 185.649,304.265 181,307.5C 167.837,306.028 154.837,306.694 142,309.5C 140.715,309.05 139.548,308.383 138.5,307.5C 136.877,308.491 135.877,307.824 135.5,305.5C 136.454,299.896 136.788,294.229 136.5,288.5C 134.194,288.007 131.861,287.674 129.5,287.5C 129.827,292.544 129.494,297.544 128.5,302.5C 127.686,300.234 127.186,297.9 127,295.5C 126.259,294.359 125.425,294.359 124.5,295.5C 123.167,308.5 123.167,321.5 124.5,334.5C 125.167,334.833 125.833,335.167 126.5,335.5C 127.76,333.647 127.76,331.814 126.5,330C 127.553,324.056 128.553,324.056 129.5,330C 129.212,332.187 128.878,334.354 128.5,336.5C 129.552,336.649 130.552,336.483 131.5,336C 132.45,333.09 134.45,331.923 137.5,332.5C 137.353,327.786 137.686,323.119 138.5,318.5C 148.206,317.644 157.873,317.311 167.5,317.5C 177.093,319.025 186.76,319.692 196.5,319.5C 195.737,320.268 194.737,320.768 193.5,321C 175.503,321.5 157.503,321.667 139.5,321.5C 139.666,326.179 139.499,330.845 139,335.5C 137.729,336.883 136.229,337.883 134.5,338.5C 131.15,338.665 127.817,338.498 124.5,338C 123.333,337.5 122.5,336.667 122,335.5C 121.333,319.5 121.333,303.5 122,287.5C 122.5,287 123,286.5 123.5,286C 128.167,285.333 132.833,285.333 137.5,286C 138,286.5 138.5,287 139,287.5C 139.499,292.823 139.666,298.156 139.5,303.5C 155.658,304.496 171.991,304.83 188.5,304.5C 188.817,300.298 188.483,296.298 187.5,292.5C 185.193,291.023 183.36,289.023 182,286.5C 181.333,282.833 181.333,279.167 182,275.5C 192.466,278.909 202.966,282.242 213.5,285.5 Z"/></g>
<g><path style="opacity:1" fill="#08253f" d="M 383.5,153.5 C 384.847,154.171 386.014,154.171 387,153.5C 387.333,155.167 387.667,156.833 388,158.5C 396.792,171.421 403.459,185.421 408,200.5C 408.574,206.038 409.907,211.372 412,216.5C 413.573,235.466 413.906,254.466 413,273.5C 412.762,277.373 411.929,281.04 410.5,284.5C 410.337,287.339 411.67,289.006 414.5,289.5C 411.853,292.061 412.52,293.561 416.5,294C 415.833,294.333 415.167,294.667 414.5,295C 416.367,295.711 417.867,295.211 419,293.5C 422.279,281.379 424.446,269.045 425.5,256.5C 423.748,245.045 423.415,233.711 424.5,222.5C 427.978,247.241 426.811,271.907 421,296.5C 419.026,304.601 416.192,312.268 412.5,319.5C 412.868,315.658 413.868,311.991 415.5,308.5C 413.669,304.759 413.003,300.759 413.5,296.5C 412.178,296.67 411.011,296.337 410,295.5C 409.308,296.025 408.808,296.692 408.5,297.5C 409.575,300.438 409.741,303.438 409,306.5C 407.887,307.711 406.72,307.711 405.5,306.5C 404.358,307.826 403.024,308.826 401.5,309.5C 406.965,295.68 410.465,281.347 412,266.5C 414.255,244.24 412.089,222.573 405.5,201.5C 400.313,184.463 392.98,168.463 383.5,153.5 Z"/></g>
<g><path style="opacity:1" fill="#ccdeed" d="M 187.5,292.5 C 188.483,296.298 188.817,300.298 188.5,304.5C 171.991,304.83 155.658,304.496 139.5,303.5C 155.5,303.5 171.5,303.5 187.5,303.5C 187.5,299.833 187.5,296.167 187.5,292.5 Z"/></g>
<g><path style="opacity:1" fill="#022a4d" d="M 412.5,319.5 C 411.5,319.5 410.5,319.5 409.5,319.5C 409.688,317.897 409.188,316.563 408,315.5C 406.556,317.155 404.722,317.822 402.5,317.5C 404.027,321.876 404.694,326.209 404.5,330.5C 403.317,333.561 401.984,336.561 400.5,339.5C 399.902,336.813 398.569,334.646 396.5,333C 396.833,332.667 397.167,332.333 397.5,332C 396.376,331.161 395.709,329.994 395.5,328.5C 397.333,322.507 399.667,316.674 402.5,311C 402.272,310.601 401.938,310.435 401.5,310.5C 401.5,310.167 401.5,309.833 401.5,309.5C 403.024,308.826 404.358,307.826 405.5,306.5C 406.72,307.711 407.887,307.711 409,306.5C 409.741,303.438 409.575,300.438 408.5,297.5C 408.808,296.692 409.308,296.025 410,295.5C 411.011,296.337 412.178,296.67 413.5,296.5C 413.003,300.759 413.669,304.759 415.5,308.5C 413.868,311.991 412.868,315.658 412.5,319.5 Z"/></g>
<g><path style="opacity:1" fill="#082641" d="M 401.5,310.5 C 401.938,310.435 402.272,310.601 402.5,311C 399.667,316.674 397.333,322.507 395.5,328.5C 395.709,329.994 396.376,331.161 397.5,332C 397.167,332.333 396.833,332.667 396.5,333C 398.569,334.646 399.902,336.813 400.5,339.5C 401.984,336.561 403.317,333.561 404.5,330.5C 404.694,326.209 404.027,321.876 402.5,317.5C 404.722,317.822 406.556,317.155 408,315.5C 409.188,316.563 409.688,317.897 409.5,319.5C 410.5,319.5 411.5,319.5 412.5,319.5C 407.806,331.833 401.473,343.166 393.5,353.5C 394.492,349.352 396.159,345.518 398.5,342C 398.012,340.416 397.012,339.249 395.5,338.5C 398.003,335.144 397.003,333.977 392.5,335C 386.699,342.582 380.865,350.749 375,359.5C 373.363,361.81 371.196,363.31 368.5,364C 366.167,367 363.833,370 361.5,373C 360.552,373.483 359.552,373.649 358.5,373.5C 358.854,375.541 358.854,377.374 358.5,379C 359.5,379.5 360.5,380 361.5,380.5C 362.853,378.817 364.52,377.484 366.5,376.5C 367.216,377.311 368.05,377.978 369,378.5C 371.684,377.269 374.184,375.936 376.5,374.5C 369.45,381.884 361.783,388.551 353.5,394.5C 352.45,394.095 352.45,393.429 353.5,392.5C 354.325,391.614 355.325,391.281 356.5,391.5C 356.351,390.448 356.517,389.448 357,388.5C 358.918,387.458 360.751,386.292 362.5,385C 361.299,384.097 360.465,382.931 360,381.5C 359.667,381.833 359.333,382.167 359,382.5C 358.196,381.196 357.029,380.529 355.5,380.5C 351.999,381.205 348.665,382.205 345.5,383.5C 370.672,364.154 389.339,339.821 401.5,310.5 Z"/></g>
<g><path style="opacity:1" fill="#02294a" d="M 393.5,353.5 C 388.964,361.374 383.297,368.374 376.5,374.5C 374.184,375.936 371.684,377.269 369,378.5C 368.05,377.978 367.216,377.311 366.5,376.5C 364.52,377.484 362.853,378.817 361.5,380.5C 360.5,380 359.5,379.5 358.5,379C 358.854,377.374 358.854,375.541 358.5,373.5C 359.552,373.649 360.552,373.483 361.5,373C 363.833,370 366.167,367 368.5,364C 371.196,363.31 373.363,361.81 375,359.5C 380.865,350.749 386.699,342.582 392.5,335C 397.003,333.977 398.003,335.144 395.5,338.5C 397.012,339.249 398.012,340.416 398.5,342C 396.159,345.518 394.492,349.352 393.5,353.5 Z"/></g>
</svg>
